<?xml version="1.0" encoding="UTF-8" standalone="no"?>
<!-- Created with Inkscape (http://www.inkscape.org/) -->

<svg
   width="512"
   height="512"
   viewBox="0 0 512 512"
   version="1.1"
   id="svg1"
   xml:space="preserve"
   xmlns:xlink="http://www.w3.org/1999/xlink"
   xmlns="http://www.w3.org/2000/svg"
   xmlns:svg="http://www.w3.org/2000/svg"><defs
     id="defs1"><linearGradient
       id="linearGradient54"><stop
         style="stop-color:#b748ff;stop-opacity:1;"
         offset="0.00229885"
         id="stop53" /><stop
         style="stop-color:#a600e8;stop-opacity:1;"
         offset="1"
         id="stop54" /></linearGradient><radialGradient
       xlink:href="#linearGradient54"
       id="radialGradient28"
       cx="276.81415"
       cy="280.76053"
       fx="276.81415"
       fy="280.76053"
       r="196.84677"
       gradientTransform="matrix(1.1042858,0,0,1.1019229,-27.764769,-16.845296)"
       gradientUnits="userSpaceOnUse" /><radialGradient
       xlink:href="#linearGradient54"
       id="radialGradient40"
       cx="172.56818"
       cy="178.17241"
       fx="172.56818"
       fy="178.17241"
       r="58.978733"
       gradientTransform="matrix(1.1042858,0,0,1.0970797,-27.764769,-13.551566)"
       gradientUnits="userSpaceOnUse" /><radialGradient
       xlink:href="#linearGradient54"
       id="radialGradient44"
       cx="255.40178"
       cy="111.97602"
       fx="255.40178"
       fy="111.97602"
       r="42.782078"
       gradientTransform="matrix(1.1042858,0,0,1.0693705,-27.764769,-9.2009085)"
       gradientUnits="userSpaceOnUse" /></defs><g
     id="layer1"><g
       id="backup"
       transform="matrix(1.1042858,0,0,1.078228,-31.273372,-6.7669087)"><path
         style="display:inline;fill:none;stroke:none;stroke-width:11.5285;stroke-dasharray:none;stroke-opacity:1"
         id="path1"
         d="m 221.7914,140.82515 c 0,154.0157 -34.57867,201.60917 -181.05631,249.20264 -146.47764,47.59347 -202.42711,29.41438 -292.95527,-95.18694 -90.52816,-124.60132 -90.52816,-183.43008 0,-308.031401 90.52816,-124.601319 146.47763,-142.780409 292.95527,-95.186939 146.47764,47.59347 181.05631,95.186939 181.05631,249.20264 z"
         transform="matrix(0.83094619,0,0,0.82842464,300.97723,126.78803)" /></g><path
       id="path3"
       style="display:none;fill:none;stroke:#000000;stroke-width:9.56518;stroke-dasharray:none;stroke-opacity:1"
       d="m 236.40672,20.210466 c -58.33579,-1.432926 -96.47098,27.862445 -148.1875,98.828124 -75.224021,103.2228 -75.224021,151.95688 0,255.17969 13.1043,17.98177 25.33615,33.28878 37.2461,46.09765 -0.91194,-4.65836 -1.18901,-8.8169 -0.77344,-12.04883 1.29735,-10.37935 8.91373,-24.52915 17.41015,-32.38476 5.65904,-5.247 10.40456,-8.04885 29.34766,-17.15235 20.61367,-9.89315 24.64719,-12.17251 33.09571,-18.77539 6.62008,-5.14216 9.39626,-9.66079 15.94336,-25.98828 6.02651,-15.07499 8.47094,-19.24967 16.36914,-28.08984 9.28552,-10.39056 18.40962,-16.00813 26.0039,-16.01954 3.02512,-0.0135 4.05015,0.80725 6.52149,5.26758 1.40097,2.50617 1.96662,3.80435 2.04492,4.69923 0.10947,1.55106 -1.67151,4.51826 -4.58789,7.57422 -5.13922,5.48586 -6.46518,7.8268 -7.05078,12.9121 -1.02867,8.79862 2.32447,15.37712 8.76757,17.28907 1.73286,0.52278 6.3647,0.6435 7.3418,0.18164 0.25215,-0.1192 0.70865,-0.1482 0.99219,-0.0586 0.51987,0.16428 0.9146,-0.28354 44.97656,-47.83789 9.45874,-10.21151 22.73322,-24.53649 29.48047,-31.82617 6.77876,-7.30459 17.48286,-18.88803 23.83594,-25.73047 6.35314,-6.84247 14.92814,-16.11499 19.07422,-20.57227 4.14605,-4.45728 7.63,-8.3042 7.72461,-8.49804 0.12617,-0.20873 0.61613,-0.77374 1.18359,-1.26563 0.52019,-0.50681 0.92984,-1.14825 0.89843,-1.43164 -0.0471,-0.3132 -0.67599,-1.95447 -1.46288,-3.66992 -1.24326,-2.80435 -1.37048,-3.26693 -1.03907,-4.35547 0.31561,-0.96925 0.6469,-1.31174 1.97071,-1.9375 l 1.54492,-0.73047 -1.02344,-0.37304 c -1.44924,-0.50773 -1.95302,-1.61137 -1.35351,-3.16211 0.66263,-1.72968 2.89967,-3.08556 4.42773,-2.65235 1.43363,0.40333 2.09604,1.80491 1.41797,2.90821 -0.29962,0.4771 -0.49063,0.93927 -0.42773,1.05859 0.0472,0.0895 1.79645,-0.77395 3.89257,-1.95117 2.06338,-1.15882 3.68509,-2.21752 3.66016,-2.39258 v -0.002 l -0.002,-0.002 v -0.002 -0.002 c -0.0629,-0.11934 -0.53669,-0.045 -1.04101,0.19336 -2.74218,1.29622 -3.79532,-2.49279 -1.28906,-4.60938 2.6166,-2.20602 5.94055,-0.68152 4.56836,2.0918 -0.34702,0.68586 -0.52042,1.25085 -0.41016,1.31055 0.12603,0.015 2.1112,-0.9967 4.39648,-2.33789 2.65291,-1.50301 4.04094,-2.44268 3.99805,-2.66016 -10e-4,-0.004 -0.004,-0.0104 -0.006,-0.0137 -0.0592,-0.082 -0.43446,-0.007 -1.13867,0.24414 -2.28501,0.8192 -3.60857,-1.83667 -1.95312,-3.92383 1.13518,-1.50575 2.63327,-2.10162 4.01953,-1.63867 1.63835,0.49291 1.92091,1.32751 1.21093,3.1914 l -0.63086,1.64063 1.63868,-0.99805 c 0.89837,-0.53647 2.71154,-1.57984 4.0039,-2.33984 2.30101,-1.31128 2.60094,-1.93705 0.59961,-1.25195 -0.72493,0.26812 -1.16574,0.17795 -1.70117,-0.31446 -1.4646,-1.35782 -0.59691,-3.74339 1.83008,-4.89062 2.64761,-1.25152 4.66314,0.4043 3.51172,2.84961 -0.34998,0.74435 -0.50527,1.07688 -0.4375,1.16601 0.0584,0.0649 0.25774,-0.0161 0.60937,-0.16601 1.99323,-0.90566 8.17016,-4.72082 8.15821,-4.9961 -2.5e-4,-9.8e-4 -0.002,-0.005 -0.002,-0.006 l -0.002,-0.002 c -8.5e-4,-6.4e-4 -0.005,-0.003 -0.006,-0.004 -0.17324,-0.10447 -0.67593,-0.0152 -1.11719,0.19336 -1.639,0.77475 -3.30991,-0.37338 -3.26172,-2.22265 0.064,-1.81945 2.9967,-3.87707 4.83985,-3.36914 1.57535,0.44814 1.96803,1.64109 1.22656,3.44531 l -0.67773,1.55078 2.90038,-1.59375 c 5.72098,-3.11433 6.71396,-3.77033 6.09961,-4.03906 -0.31502,-0.14929 -0.97812,-0.0607 -1.48241,0.17773 -0.63038,0.29798 -1.19812,0.26766 -1.82813,-0.10547 -1.26014,-0.67171 -1.4325,-1.96769 -0.48633,-3.5332 1.21425,-2.02771 3.73672,-2.69909 5.18555,-1.37109 0.74019,0.65653 0.73968,0.88069 0.20313,2.55078 -0.34717,0.98415 -0.58439,1.8787 -0.52149,1.99804 0.0472,0.0895 1.78082,-0.80521 3.87695,-1.98242 2.75215,-1.5497 4.2412,-2.25961 5.86133,-2.30273 C 447.23596,89.321971 407.49671,64.752778 331.64891,40.183121 293.61296,27.861995 262.923,20.86179 236.40672,20.210466 Z M 456.7075,158.57374 c -0.1037,0.006 -0.18123,0.0206 -0.22851,0.043 -0.34669,0.16389 -4.68349,7.24418 -9.58789,15.71289 -4.90443,8.46871 -9.05139,15.46261 -9.20898,15.53711 -0.1576,0.0745 -0.80388,-0.0312 -1.38672,-0.24023 -1.49653,-0.52268 -4.34864,-0.32942 -7.94141,0.54883 -4.77459,1.17596 -7.61042,2.29279 -8.58789,3.42578 -0.42568,0.53671 -6.84208,7.93106 -14.28321,16.44336 -13.65262,15.69782 -26.20105,30.12839 -59.16601,68.11328 -10.04241,11.56839 -21.94626,25.28281 -26.45508,30.4707 -4.50884,5.18789 -8.63781,9.97348 -9.17383,10.59962 -0.53603,0.62611 -3.359,3.86238 -6.25976,7.17187 -4.14623,4.75556 -5.28084,6.26018 -5.28125,7.00586 -0.0169,2.20721 -1.08916,3.83212 -8.38867,12.6875 -3.86258,4.69601 -4.55762,6.29264 -4.44922,9.93164 0.13904,5.33918 4.53212,10.15706 11.14844,12.24804 7.56152,2.38971 15.23705,0.36564 21.13281,-5.62695 3.23163,-3.27952 3.95568,-3.77178 6.44531,-4.20313 3.46658,-0.59495 6.94878,0.85343 8.33398,3.4043 0.99157,1.8796 1.38253,5.38521 0.89258,8.33789 -0.99583,6.17384 -5.18998,12.48045 -12.29883,18.26368 -4.00366,3.30897 -7.5964,5.4549 -14.37304,8.65819 -6.11473,2.89044 -9.55091,4.88651 -13.58594,7.91211 -7.8179,5.85748 -13.68212,13.62511 -16.85352,22.31837 -1.70404,4.68211 -2.44722,8.12684 -3.4121,15.40429 -0.44288,3.26591 -1.23265,7.59042 -1.78516,9.60352 -1.68524,6.01071 -4.49778,12.27888 -7.94336,18.03906 19.87494,-3.16409 42.10074,-9.03795 67.63867,-17.31054 121.71504,-39.42761 150.44726,-78.85492 150.44726,-206.44532 0,-35.39501 -2.20985,-64.0052 -8.0039,-87.71289 -0.48196,0.32374 -1.00015,0.60797 -1.58984,0.88672 -2.64762,1.25152 -4.61764,1.17446 -10.77734,-0.34961 -2.26068,-0.56217 -4.29163,-0.91833 -5.01759,-0.87891 z" /><path
       id="path1-5-3"
       style="fill:url(#radialGradient28);fill-rule:nonzero;stroke:#000000;stroke-width:14.1854;stroke-linecap:round;stroke-linejoin:round;stroke-miterlimit:2.7;stroke-dasharray:none;stroke-dashoffset:0;stroke-opacity:1;paint-order:normal"
       d="m 471.19305,82.629922 c -0.87474,-0.0043 -1.70538,0.148482 -2.64427,0.476793 l -69.91659,39.414065 -0.006,0.004 -3.64624,2.05334 c -3.7e-4,5.1e-4 3.8e-4,0.002 0,0.002 -0.20797,0.27221 -0.35229,0.59042 -0.4929,1.01206 -0.39085,1.25344 -0.24312,1.7861 1.22306,5.0153 0.92802,1.97534 1.66967,3.86527 1.72527,4.22592 0.037,0.3263 -0.44609,1.06493 -1.05958,1.64852 -0.6692,0.56642 -1.24473,1.21929 -1.39355,1.45961 -0.11156,0.22322 -4.22029,4.65068 -9.10982,9.78325 -4.88957,5.13256 -15.00463,15.80982 -22.49705,23.68893 -7.49235,7.87904 -20.11596,21.21735 -28.11034,29.62858 -7.95723,8.39405 -23.60988,24.88923 -34.76479,36.64777 -51.96347,54.7587 -52.42897,55.27439 -53.04206,55.08523 -0.33441,-0.10319 -0.87276,-0.0698 -1.17014,0.0675 -1.15231,0.53186 -6.61472,0.39284 -8.65836,-0.20915 -7.59851,-2.20159 -11.55297,-9.77673 -10.33984,-19.90833 0.69062,-5.8557 2.25207,-8.55131 8.31288,-14.86826 3.43938,-3.51895 5.54202,-6.93566 5.41293,-8.72168 -0.0924,-1.03046 -0.76175,-2.52532 -2.41396,-5.41116 -2.91452,-5.13607 -4.12104,-6.08117 -7.68865,-6.06561 -8.95613,0.0131 -19.71874,6.48399 -30.66939,18.44871 -9.31456,10.17943 -12.19733,14.98659 -19.30457,32.34541 -7.72117,18.80108 -10.99286,24.00201 -18.80011,29.9232 -9.96357,7.60317 -14.72271,10.22788 -39.03295,21.61982 -22.34011,10.48267 -27.934304,13.70899 -34.608164,19.75089 -10.020064,9.0457 -19.002275,25.3392 -20.532269,37.291 -0.746272,5.66679 0.400639,13.80832 3.201684,22.6881 1.558131,5.03243 7.331671,15.71524 10.952538,20.35362 3.695164,4.68994 10.397927,11.76987 14.743887,15.60144 7.466134,6.59787 13.188244,10.99565 28.994824,22.28554 5.68372,4.07261 12.53701,9.02241 15.19308,11.01569 19.46539,14.45142 37.31972,17.32706 57.28026,9.14452 5.018,-2.0585 11.59899,-5.69553 15.66984,-8.64749 11.50616,-8.3581 23.07273,-25.80248 27.63354,-41.68556 0.6516,-2.31807 1.58301,-7.29776 2.10531,-11.05844 1.13789,-8.37996 2.01206,-12.34657 4.02166,-17.738 3.7401,-10.01026 10.65824,-18.95244 19.8781,-25.69731 4.75863,-3.48398 8.81101,-5.78468 16.02227,-9.11302 7.99186,-3.68859 12.22891,-6.15962 16.95052,-9.9699 8.38366,-6.65937 13.32991,-13.92142 14.50433,-21.0306 0.57781,-3.40001 0.1144,-7.43444 -1.05495,-9.59878 -1.63361,-2.93732 -5.73795,-4.60515 -9.82618,-3.92007 -2.93608,0.49671 -3.79229,1.0613 -7.60342,4.83765 -6.95303,6.90044 -16.0027,9.23342 -24.92019,6.48167 -7.80279,-2.40776 -12.98368,-7.95778 -13.14765,-14.10582 -0.12785,-4.19032 0.68951,-6.02656 5.24475,-11.43405 8.60852,-10.19693 9.87308,-12.06802 9.89302,-14.6096 4.7e-4,-0.85867 1.34085,-2.59347 6.2306,-8.06949 3.42095,-3.81088 6.74786,-7.53519 7.38001,-8.25615 0.63214,-0.72099 5.50385,-6.23158 10.82125,-12.20544 5.31737,-5.97384 19.35361,-21.76821 31.19687,-35.08921 38.87646,-43.73952 53.67745,-60.35628 69.77836,-78.4323 8.77552,-9.8019 16.34255,-18.31648 16.84455,-18.93447 1.15276,-1.30465 4.49712,-2.5907 10.12793,-3.9448 4.23706,-1.01131 7.60065,-1.2316 9.36552,-0.62972 0.68738,0.24073 1.44955,0.36017 1.63541,0.27438 0.18584,-0.0857 5.07646,-8.13701 10.86039,-17.88871 5.78387,-9.75172 10.8984,-17.9069 11.30724,-18.09561 0.44606,-0.20589 3.13993,0.22501 6.18685,0.96483 7.26433,1.75497 9.58763,1.84144 12.71002,0.40033 2.71349,-1.25241 4.12612,-2.59255 6.84103,-6.42095 2.21281,-3.12451 3.08694,-5.459005 3.12566,-8.395592 0.0381,-1.906199 -0.14737,-2.679201 -1.40966,-5.015312 -1.96769,-3.641597 -4.3069,-5.30829 -10.02888,-7.217086 -2.4317,-0.79872 -4.02044,-1.245224 -5.48203,-1.252718 z" /><path
       id="path2"
       style="fill:url(#radialGradient40);stroke:#000000;stroke-width:10.9119;stroke-dasharray:none;stroke-opacity:1"
       d="m 172.42595,241.19656 c -4.15654,0.89663 -22.7277,-30.76532 -26.63018,-32.42545 -3.90247,-1.6601 -40.29609,6.61993 -42.4539,3.0372 -2.1578,-3.58276 22.94346,-30.61228 23.35453,-34.7492 0.41108,-4.13689 -18.90025,-35.37387 -16.07733,-38.48476 2.82295,-3.11089 36.90757,11.84591 41.06409,10.94927 4.15653,-0.89665 28.6151,-28.4822 32.51759,-26.82208 3.90246,1.66012 -0.13335,37.93347 2.02445,41.51619 2.15781,3.58276 36.58536,17.77093 36.1743,21.90781 -0.41109,4.13691 -36.98997,11.59828 -39.81289,14.70919 -2.82296,3.11088 -6.00412,39.46519 -10.16066,40.36183 z" /><path
       id="path2-2"
       style="fill:url(#radialGradient44);stroke:#000000;stroke-width:8.72943;stroke-dasharray:none;stroke-opacity:1"
       d="m 221.3907,145.23691 c -2.19029,-2.01793 9.39657,-25.21887 8.83936,-28.10847 -0.55721,-2.88959 -19.99224,-20.387404 -18.70352,-23.044924 1.2887,-2.657532 27.4679,0.93272 30.11028,-0.477644 2.64242,-1.410376 13.68026,-24.865138 16.66704,-24.489644 2.98678,0.375495 7.57954,25.795334 9.76984,27.81326 2.19032,2.017947 28.4471,5.019912 29.0043,7.909502 0.55721,2.88962 -22.78352,15.00968 -24.07221,17.66722 -1.2887,2.65751 3.90102,27.9676 1.25862,29.37797 -2.64238,1.41037 -21.66052,-16.51885 -24.64728,-16.89434 -2.98677,-0.37551 -26.03612,12.26501 -28.22643,10.24707 z" /><g
       id="g4"
       transform="matrix(1.1042858,0,0,1.078228,-31.273372,-6.7669087)"><path
         style="display:inline;fill:none;stroke:none;stroke-width:11.5287;stroke-dasharray:none;stroke-opacity:1"
         id="path25"
         d="m 221.7914,140.82515 c 0,154.0157 -34.57867,201.60917 -181.05631,249.20264 -146.47764,47.59347 -202.42711,29.41438 -292.95527,-95.18694 -90.52816,-124.60132 -90.52816,-183.43008 0,-308.031401 90.52816,-124.601319 146.47763,-142.780409 292.95527,-95.186939 146.47764,47.59347 181.05631,95.186939 181.05631,249.20264 z"
         transform="matrix(0.83094619,0,0,0.82842464,300.97723,126.78803)" /></g></g></svg>
